<svg version="1.1" viewBox="0.0 0.0 1920.0 960.0" fill="none" stroke="none" stroke-linecap="square" stroke-miterlimit="10" xmlns:xlink="http://www.w3.org/1999/xlink" xmlns="http://www.w3.org/2000/svg"><clipPath id="p.0"><path d="m0 0l1920.0 0l0 960.0l-1920.0 0l0 -960.0z" clip-rule="nonzero"/></clipPath><g clip-path="url(#p.0)"><path fill="#000000" fill-opacity="0.0" d="m0 0l1920.0 0l0 960.0l-1920.0 0z" fill-rule="evenodd"/><path fill="#ffffff" d="m163.40092 641.1576l253.86522 -223.06384l-59.28253 283.15833z" fill-rule="evenodd"/><path fill="#ffffff" d="m43.134796 507.85284l374.89764 -90.01575l-280.9449 196.0315z" fill-rule="evenodd"/><path fill="#ffffff" d="m156.916 367.22464l117.173416 -83.98511l-24.66948 109.05597z" fill-rule="evenodd"/><path fill="#ffffff" d="m98.649376 314.48822l175.65353 -31.496063l-130.20473 73.29135z" fill-rule="evenodd"/><path fill="#000000" fill-opacity="0.0" d="m453.6378 321.0761l1413.6378 0l0 394.5512l-1413.6378 0z" fill-rule="evenodd"/><path fill="#ffffff" d="m486.9034 586.0761l39.671906 -186.65625l76.53125 0q20.53125 0 35.75 6.796875q15.21875 6.796875 24.71875 19.203125q9.5 12.390625 12.265625 29.46875q2.78125 17.0625 -1.640625 37.859375q-4.375 20.53125 -14.4375 37.734375q-10.046875 17.1875 -24.6875 29.59375q-14.625 12.40625 -32.875 19.203125q-18.234375 6.796875 -38.765625 6.796875l-76.53128 0zm46.171906 -29.0625l-2.78125 -6.9375l39.46875 0q12.0 0 22.46875 -4.125q10.46875 -4.140625 18.828125 -11.46875q8.375 -7.34375 14.09375 -18.0q5.734375 -10.671875 8.515625 -23.734375q2.765625 -13.0625 1.546875 -23.59375q-1.21875 -10.546875 -6.4375 -18.0q-5.21875 -7.46875 -13.9375 -11.59375q-8.71875 -4.140625 -20.71875 -4.140625l-40.265625 0l6.4375 -6.40625l-27.21875 128.0zm157.5534 29.0625l39.671875 -186.65625l126.125 0l-7.484375 35.203125l-86.921875 0l-24.703125 116.25l88.796875 0l-7.484375 35.203125l-128.0 0zm35.28125 -78.125l7.25 -34.140625l94.65625 0l-7.25 34.140625l-94.65625 0zm172.98291 78.125l32.015625 -150.65625l-54.40625 0l7.65625 -36.0l150.39069 0l-7.65625 36.0l-55.984375 0l-32.015686 150.65625l-40.0 0z" fill-rule="nonzero"/><path fill="#725ac5" d="m1005.54254 586.0761l113.015564 -186.65625l35.71875 0l33.125 186.65625l-41.0625 0l-16.21875 -100.53125q-0.6875 -4.265625 -1.546875 -10.921875q-0.859375 -6.671875 -1.671875 -14.140625q-0.8125 -7.46875 -1.5 -14.265625q-0.6875 -6.796875 -0.78125 -11.328125l7.203125 0q-2.859375 5.859375 -6.25 12.390625q-3.390625 6.53125 -6.96875 13.34375q-3.578125 6.796875 -7.34375 13.203125q-3.75 6.390625 -7.171875 12.515625l-58.8125 99.734375l-39.734314 0zm42.46869 -39.203125l19.875 -32.0l85.59375 0l6.53125 32.0l-112.0 0zm160.7334 39.203125l7.3125 -34.40625l31.203125 0l25.046875 -117.859375l-31.203125 0l7.3125 -34.390625l102.390625 0l-7.3125 34.390625l-31.203125 0l-25.046875 117.859375l31.203125 0l-7.3125 34.40625l-102.390625 0z" fill-rule="nonzero"/><path fill="#ffffff" d="m1354.8693 586.0761l39.671875 -186.65625l40.0 0l-32.015625 150.65625l84.53125 0l-7.65625 36.0l-124.53125 0zm161.59363 0l39.671875 -186.65625l126.125 0l-7.484375 35.203125l-86.921875 0l-24.703125 116.25l88.796875 0l-7.484375 35.203125l-128.0 0zm35.28125 -78.125l7.25 -34.140625l94.65625 0l-7.25 34.140625l-94.65625 0zm134.04541 78.125l39.671875 -186.65625l82.65625 0q17.34375 0 29.796875 7.875q12.46875 7.859375 17.765625 21.1875q5.3125 13.328125 1.671875 30.40625q-3.5625 16.796875 -14.625 30.53125q-11.046875 13.71875 -26.875 21.71875q-15.828125 8.0 -33.171875 8.0l-43.984375 0l-14.234375 66.9375l-38.671875 0zm105.859375 0l-29.5625 -84.265625l42.5 -6.671875l33.40625 91.203125l-46.34375 -0.265625zm-46.046875 -99.46875l42.125 0q7.203125 0 13.375 -3.328125q6.171875 -3.328125 10.375 -9.328125q4.21875 -6.0 5.8125 -13.46875q1.6875 -8.0 -0.53125 -13.859375q-2.21875 -5.875 -8.171875 -9.203125q-5.953125 -3.34375 -14.75 -3.34375l-37.0625 0l-11.171875 52.53125z" fill-rule="nonzero"/></g></svg>